<?xml version="1.0" standalone="no"?>
<!DOCTYPE svg PUBLIC "-//W3C//DTD SVG 20010904//EN"
 "http://www.w3.org/TR/2001/REC-SVG-20010904/DTD/svg10.dtd">
<svg version="1.0" xmlns="http://www.w3.org/2000/svg"
 width="2600.000000pt" height="2000.000000pt" viewBox="0 0 2600.000000 2000.000000"
 preserveAspectRatio="xMidYMid meet">

<g transform="translate(0.000000,2000.000000) scale(0.100000,-0.100000)"
fill="#000000" stroke="none">
<path d="M17926 17613 c3 -21 36 -452 75 -958 38 -506 77 -969 85 -1029 110
-790 514 -1645 1120 -2371 144 -172 298 -333 543 -564 l213 -203 302 5 c325 5
390 13 576 72 544 174 912 648 1004 1295 8 58 47 496 87 975 60 727 69 871 58
878 -427 256 -828 551 -1268 934 -80 70 -285 265 -455 435 l-309 308 -86 -10
c-157 -18 -431 -23 -611 -11 -398 27 -768 99 -1158 226 -93 30 -172 55 -175
55 -3 0 -3 -17 -1 -37z m3189 -2088 c66 -86 120 -160 120 -165 0 -4 -340 -264
-755 -576 -746 -560 -756 -568 -834 -591 -44 -12 -87 -23 -96 -23 -11 0 -53
90 -144 313 -72 171 -194 467 -273 656 -78 190 -142 345 -140 346 1 1 40 11
87 24 60 15 128 24 231 28 l146 6 50 -119 c27 -65 92 -221 144 -346 51 -126
97 -228 101 -228 4 0 244 177 534 394 498 372 530 395 598 414 39 11 80 21 91
21 15 1 53 -41 140 -154z"/>
<path d="M9360 16311 c-96 -26 -187 -51 -202 -55 l-28 -6 0 -125 c0 -69 -2
-125 -5 -125 -3 0 -78 36 -166 81 l-161 80 -177 -46 c-97 -25 -191 -51 -208
-56 l-33 -10 -2 -246 -3 -246 -175 -47 c-96 -25 -248 -66 -337 -90 l-163 -43
0 -208 0 -209 165 -82 165 -83 0 -1266 0 -1267 -39 -7 -39 -6 56 -58 c140
-143 215 -372 196 -599 l-6 -82 377 -186 c207 -102 384 -184 393 -182 10 2
165 -69 345 -158 l329 -162 41 13 c59 19 218 61 305 82 l72 17 0 123 c0 68 2
123 5 123 3 0 76 -36 164 -79 l158 -80 79 23 c43 12 139 38 212 56 l132 34 0
266 1 265 80 39 c301 146 571 393 717 658 191 346 205 751 36 1030 -73 119
-193 227 -319 284 l-54 25 54 72 c104 138 196 340 230 507 22 102 25 298 6
385 -46 213 -180 392 -364 484 -100 50 -172 69 -294 77 l-93 7 -2 253 -3 253
-629 311 c-346 170 -632 310 -635 309 -3 0 -85 -22 -181 -48z"/>
<path d="M6460 10241 c0 -6 4 -13 10 -16 6 -3 7 1 4 9 -7 18 -14 21 -14 7z"/>
<path d="M11002 10228 c-7 -9 -6 -17 3 -25 10 -10 14 -9 19 3 4 10 2 13 -6 8
-8 -5 -9 -2 -5 9 8 20 3 22 -11 5z"/>
<path d="M11040 10231 c0 -15 24 -29 50 -27 28 1 35 28 8 32 -10 1 -16 -3 -15
-9 1 -7 -5 -12 -13 -12 -8 0 -14 6 -12 13 1 6 -2 12 -8 12 -5 0 -10 -4 -10 -9z
m70 -11 c0 -5 -5 -10 -11 -10 -5 0 -7 5 -4 10 3 6 8 10 11 10 2 0 4 -4 4 -10z"/>
<path d="M11166 10232 c-3 -5 1 -9 9 -9 8 0 12 4 9 9 -3 4 -7 8 -9 8 -2 0 -6
-4 -9 -8z"/>
<path d="M13235 10230 c6 -10 4 -12 -10 -6 -18 7 -18 6 -1 -13 16 -18 36 -20
36 -5 0 3 -5 2 -12 -2 -8 -5 -9 -2 -5 9 3 9 1 19 -5 23 -7 5 -8 2 -3 -6z"/>
<path d="M6426 10219 c3 -5 -3 -9 -13 -10 -11 0 -13 -3 -5 -6 7 -3 19 0 26 6
10 8 16 9 19 1 3 -6 5 -6 3 1 -1 7 -10 13 -19 15 -9 1 -15 -2 -11 -7z"/>
<path d="M6370 10209 c12 -8 8 -9 -15 -7 -22 2 -31 -2 -33 -14 -2 -10 1 -18 7
-18 6 0 8 6 5 13 -3 9 4 13 22 12 15 0 29 6 31 13 3 7 -3 12 -14 12 -15 0 -16
-2 -3 -11z"/>
<path d="M3360 10180 c0 -5 5 -10 11 -10 5 0 7 5 4 10 -3 6 -8 10 -11 10 -2 0
-4 -4 -4 -10z"/>
<path d="M6273 10175 c1 -6 -29 -11 -75 -13 -44 -2 -78 -7 -78 -13 0 -6 5 -7
12 -3 7 5 8 3 3 -5 -5 -9 -10 -10 -18 -2 -18 18 -31 13 -16 -6 13 -15 12 -15
-9 -4 -12 6 -26 10 -31 7 -4 -3 -23 -8 -42 -11 -50 -8 -69 -15 -69 -25 0 -4
-8 -6 -17 -4 -10 2 -31 0 -48 -5 -27 -9 -24 -9 23 -9 30 1 52 6 52 12 0 8 3 7
8 0 9 -15 104 -15 95 0 -4 6 0 5 8 -1 12 -10 474 -13 2129 -13 1162 0 2116 -2
2118 -5 3 -3 -1005 -6 -2240 -7 -1236 -2 -2244 0 -2241 5 5 9 -11 9 -21 0 -3
-4 -16 -8 -29 -10 -12 -2 -386 -101 -832 -220 -777 -207 -814 -216 -920 -221
-76 -3 -133 1 -183 12 -230 49 -405 221 -459 454 l-17 72 -1653 0 -1652 0 -4
-42 -4 -43 -1 43 c-2 38 -5 42 -27 42 l-25 0 0 -5080 0 -5080 12995 0 12995 0
0 5035 0 5035 -2442 3 -2443 2 2443 3 2442 2 0 40 0 40 -6357 0 c-6289 -1
-6358 -1 -6318 -20 47 -23 59 -25 49 -7 -4 7 -3 9 2 4 5 -5 9 -13 9 -18 0 -5
4 -9 10 -9 5 0 10 7 10 15 0 8 3 15 8 15 4 0 12 0 17 0 6 0 2 -12 -7 -27 -10
-15 -13 -24 -7 -20 7 4 17 0 24 -9 7 -8 19 -13 26 -10 8 3 17 -1 21 -8 10 -16
338 -183 1958 -996 715 -359 1324 -669 1353 -688 30 -19 66 -53 80 -75 l27
-40 3 -266 3 -266 524 -265 525 -265 0 -38 0 -37 -520 260 c-286 143 -522 260
-524 260 -2 0 -6 -19 -10 -42 -20 -127 -135 -199 -476 -297 -28 -9 61 -56 958
-506 l572 -287 0 -39 0 -40 -832 419 -833 419 -215 -58 c-118 -32 -233 -63
-255 -70 l-40 -11 428 -214 c435 -218 454 -230 415 -262 -7 -5 -334 -97 -726
-203 -603 -164 -710 -196 -695 -206 11 -9 57 -13 137 -13 421 -1 1074 -75
1451 -165 221 -52 182 -52 376 1 96 26 175 48 176 49 2 1 -3 15 -9 33 -10 27
-9 34 7 53 91 102 464 95 569 -11 26 -25 29 -33 21 -57 -12 -35 -76 -68 -160
-84 -66 -13 -227 -6 -288 11 -34 10 -58 6 -195 -30 -87 -23 -158 -44 -160 -45
-2 -2 43 -17 100 -35 167 -52 354 -124 512 -200 l149 -70 169 45 c93 26 177
44 187 40 10 -3 26 -14 35 -24 15 -17 10 -19 -116 -54 -73 -20 -145 -39 -160
-43 -16 -3 -28 -9 -28 -13 1 -3 35 -29 78 -58 164 -110 299 -261 342 -385 26
-73 27 -199 3 -260 -61 -159 -236 -303 -496 -412 -433 -182 -1007 -265 -1742
-253 -429 7 -701 32 -1095 98 -945 159 -1706 513 -1888 878 -36 71 -42 79 -42
52 0 -17 -3 -31 -6 -31 -3 0 -345 170 -760 379 l-754 378 -665 -177 c-366 -98
-670 -180 -677 -182 -12 -4 316 -173 1212 -625 410 -206 455 -231 455 -253 0
-23 -33 -33 -1310 -381 -3135 -854 -3781 -1029 -3798 -1029 -27 0 -1137 559
-1144 576 -3 9 1 21 8 28 8 8 496 145 1084 305 2424 662 2985 816 2985 821 0
3 -123 67 -273 141 l-273 137 -1024 -274 c-564 -151 -1074 -283 -1135 -294
-217 -40 -492 -43 -770 -10 l-100 12 -535 -146 c-294 -81 -559 -153 -588 -162
-51 -14 -52 -15 -37 -38 39 -58 -34 -110 -183 -128 -158 -20 -345 25 -396 95
l-20 27 21 28 c11 15 42 36 69 46 68 26 245 33 339 13 l70 -15 574 156 c496
136 570 158 545 167 -16 5 -204 96 -417 202 l-388 193 -703 -191 -702 -191
-533 266 c-292 147 -534 273 -538 282 -3 9 1 22 8 29 8 7 307 93 664 190 358
98 653 180 657 184 4 3 -435 228 -975 498 -638 320 -998 506 -1026 530 -79 67
-81 74 -81 438 0 288 2 324 19 360 24 53 85 107 168 148 89 45 143 62 483 152
233 63 3021 807 4960 1325 245 66 933 250 1530 410 597 160 1092 292 1101 295
109 25 297 79 308 88 8 7 16 11 18 10 10 -8 33 -1 33 10 0 8 7 14 15 14 11 0
12 -4 4 -14 -9 -10 -3 -10 30 2 23 8 42 15 44 15 1 0 12 3 24 6 14 4 20 11 16
18 -4 6 1 4 11 -4 16 -13 20 -12 31 3 13 19 30 24 19 6 -5 -8 -1 -8 13 0 11 6
23 8 26 5 3 -3 13 -2 22 4 12 6 -22 9 -104 9 -66 0 -121 -4 -121 -8 0 -5 -5
-9 -11 -9 -5 0 -7 5 -4 10 5 8 -2527 15 -4272 11 -84 0 -115 9 -80 22 6 3 2 4
-10 4 -12 -1 -21 -6 -20 -12z m-219 -70 c-4 -8 -10 -12 -15 -9 -11 6 -2 24 11
24 5 0 7 -7 4 -15z m46 5 c8 -5 12 -11 10 -14 -3 -2 -14 2 -24 10 -22 15 -10
19 14 4z m-2737 -37 c5 -7 -1113 -7 -2693 0 -327 1 144 3 1047 5 903 1 1644
-1 1646 -5z m7102 -3 c3 -5 2 -10 -4 -10 -5 0 -13 5 -16 10 -3 6 -2 10 4 10 5
0 13 -4 16 -10z m7272 3 c-763 -2 -2011 -2 -2775 0 -763 1 -138 2 1388 2 1526
0 2151 -1 1387 -2z m1497 -1 c2 -4 -5 -9 -17 -9 -17 -2 -19 0 -7 7 18 12 18
12 24 2z m46 4 c0 -2 -7 -7 -16 -10 -8 -3 -12 -2 -9 4 6 10 25 14 25 6z m30
-6 c0 -5 -2 -10 -4 -10 -3 0 -8 5 -11 10 -3 6 -1 10 4 10 6 0 11 -4 11 -10z
m80 4 c0 -8 -19 -13 -24 -6 -3 5 1 9 9 9 8 0 15 -2 15 -3z m90 2 c0 -2 -7 -7
-16 -10 -8 -3 -12 -2 -9 4 6 10 25 14 25 6z m95 -16 c7 0 16 6 18 13 4 8 8 9
14 1 9 -12 76 -17 69 -5 -6 10 813 7 848 -4 24 -6 27 -5 21 6 -7 12 -6 12 7 1
10 -8 35 -12 67 -9 28 1 51 0 51 -3 0 -3 64 -12 143 -19 182 -16 435 -53 657
-96 903 -178 1562 -506 1737 -865 90 -185 39 -369 -145 -525 -161 -135 -381
-233 -709 -316 l-133 -34 0 -246 0 -247 -22 -5 c-23 -6 -243 -42 -308 -51 -19
-3 -70 -8 -112 -12 l-78 -7 0 248 0 248 -43 -6 c-24 -3 -102 -9 -175 -13
l-132 -7 0 -248 0 -249 -130 0 -130 0 0 245 0 245 -22 0 c-105 1 -504 23 -633
36 -1024 99 -1912 396 -2286 764 -144 141 -195 249 -187 398 6 121 37 182 145
289 216 214 629 365 1213 443 84 11 170 20 191 20 30 0 39 4 40 18 0 10 3 12
6 5 2 -7 11 -13 18 -13z m1530 10 c-3 -5 -14 -10 -23 -9 -14 0 -13 2 3 9 27
11 27 11 20 0z m-3548 -892 l403 -203 0 -37 c0 -21 -2 -38 -5 -38 -3 0 -189
92 -414 204 l-408 205 -537 -147 c-295 -80 -533 -149 -529 -153 5 -4 431 -221
948 -483 l940 -475 3 -41 3 -41 -1008 507 c-554 279 -1017 515 -1027 525 -20
19 -16 46 9 55 43 17 1174 323 1195 324 14 0 198 -86 427 -202z m4663 -1747
l0 -229 -112 -21 c-126 -23 -333 -51 -379 -51 l-29 0 0 224 0 225 43 5 c139
19 263 39 342 55 50 10 100 19 113 20 l22 1 0 -229z m-870 -106 l0 -225 -130
0 -130 0 0 225 0 225 130 0 130 0 0 -225z m870 -404 l0 -228 -57 -11 c-107
-21 -308 -51 -385 -58 l-78 -7 0 227 c0 124 3 226 7 226 21 0 358 53 408 64
33 8 70 14 83 15 l22 1 0 -229z m-877 120 c4 -1 7 -102 7 -226 l0 -225 -130 0
-130 0 0 225 0 224 108 3 c59 2 114 2 122 1 8 -1 18 -2 23 -2z m877 -625 l0
-233 -82 -16 c-100 -19 -266 -43 -365 -53 l-73 -7 0 226 0 226 33 5 c17 3 86
13 152 21 91 13 313 55 333 64 1 0 2 -104 2 -233z m-870 -107 l0 -229 -130 0
-130 0 0 225 0 224 103 3 c56 2 114 4 130 4 l27 2 0 -229z m1970 -164 c0 -17
-38 -45 -62 -45 -15 0 -18 9 -18 50 l0 50 40 -20 c22 -11 40 -27 40 -35z
m-1100 -239 l0 -233 -57 -12 c-73 -14 -307 -47 -395 -56 l-68 -7 0 225 0 226
33 5 c17 3 95 15 172 26 108 16 293 51 313 59 1 1 2 -104 2 -233z m-870 -106
l0 -230 -130 0 -130 0 0 225 0 224 108 4 c59 1 117 4 130 5 l22 2 0 -230z
m863 -631 c-14 -12 -440 -79 -505 -79 -4 0 -8 101 -8 225 l0 225 23 4 c12 3
90 14 172 26 83 11 188 29 235 38 l85 18 3 -225 c1 -123 -1 -228 -5 -232z
m2471 436 c130 -28 187 -70 172 -129 -18 -71 -226 -107 -411 -71 l-76 14
-1191 -324 c-655 -179 -1197 -325 -1205 -325 -7 0 -146 67 -309 149 -273 136
-294 149 -264 155 71 14 93 6 335 -118 l241 -123 709 193 c389 107 710 196
713 198 2 3 -74 44 -169 92 -96 47 -194 98 -217 112 l-44 25 30 19 30 19 240
-120 239 -120 384 105 c211 58 385 107 388 110 3 2 -1 10 -7 16 -21 21 -13 55
18 82 27 23 52 32 125 49 45 10 205 6 269 -8z m-3334 -309 l0 -223 -61 -7
c-34 -3 -93 -6 -130 -6 l-69 0 0 225 0 224 93 3 c50 2 109 4 130 5 l37 2 0
-223z m-1914 -28 c108 -26 150 -44 341 -142 173 -89 219 -117 221 -134 2 -15
-4 -25 -20 -32 -13 -5 -331 -93 -708 -195 -377 -103 -717 -195 -756 -206 -91
-25 -94 -24 -94 10 0 27 4 30 73 48 851 232 1377 378 1377 383 0 3 -122 66
-271 140 -246 123 -357 183 -305 166 11 -4 75 -21 142 -38z m1556 -648 c221
-32 298 -127 156 -191 -48 -22 -67 -24 -198 -24 -90 0 -158 5 -179 12 -35 13
-22 17 -3381 -899 l-625 -170 -420 212 c-231 117 -422 214 -423 216 -2 1 29 0
70 -3 71 -5 82 -9 426 -184 l354 -180 986 270 c543 148 1392 380 1887 516 495
135 924 253 954 261 50 14 52 16 37 33 -77 85 135 163 356 131z m-7395 -271
c-7 -3 -391 -109 -854 -235 -464 -126 -843 -231 -843 -234 0 -3 100 -56 223
-118 917 -464 1193 -606 1205 -620 7 -10 10 -11 7 -4 -4 8 22 -1 59 -20 36
-18 66 -37 66 -41 0 -4 -8 -4 -17 2 -11 6 -24 6 -35 0 -12 -7 -18 -6 -18 1 0
6 -4 8 -10 5 -5 -3 -10 0 -10 7 0 11 -2 11 -9 0 -6 -11 -15 -10 -44 4 -21 10
-37 22 -37 27 0 5 7 4 15 -3 8 -7 15 -8 15 -4 0 5 -9 15 -20 22 -11 7 -19 8
-18 3 2 -5 0 -9 -4 -10 -24 -3 -30 1 -24 15 5 14 4 15 -9 4 -12 -10 -15 -10
-15 0 0 8 -3 10 -7 7 -3 -4 -15 0 -25 10 -10 9 -18 13 -18 10 0 -4 -309 148
-687 337 l-688 343 -835 -227 c-459 -126 -1024 -280 -1255 -343 -321 -87 -423
-111 -434 -103 -11 8 -13 8 -7 -1 4 -7 2 -14 -3 -14 -14 -2 -22 -4 -41 -12 -8
-3 -43 -13 -77 -23 -51 -13 -66 -14 -78 -4 -13 11 -14 10 -9 -4 4 -11 0 -16
-12 -17 -28 -2 -36 -4 -67 -17 -36 -15 -40 -15 -34 1 3 8 -1 14 -8 14 -8 0
-14 -3 -13 -6 2 -19 -4 -22 -19 -10 -9 8 -14 9 -10 3 5 -8 -6 -13 -32 -16 -22
-2 -37 0 -34 5 5 8 -30 4 -59 -8 -10 -4 -18 -3 -18 3 0 12 75 32 101 27 11 -2
17 0 14 6 -4 5 2 10 12 11 33 2 38 3 52 12 11 7 12 6 6 -5 -7 -11 -6 -12 7 -2
8 7 18 10 21 6 4 -3 7 -2 7 4 0 16 36 22 51 9 9 -8 10 -8 5 1 -3 6 1 14 11 17
10 3 207 57 438 120 231 63 776 212 1210 331 435 119 1184 324 1665 455 481
132 945 259 1030 283 l155 43 37 -20 c22 -13 32 -23 25 -27z m931 -360 c19 -4
35 -9 38 -11 2 -3 -85 -28 -194 -58 -108 -29 -200 -55 -204 -59 -3 -3 292
-157 657 -341 365 -184 662 -337 660 -340 -4 -7 53 -4 93 5 42 9 124 -4 115
-19 -3 -6 0 -6 8 2 14 13 53 17 45 4 -2 -4 14 -8 36 -8 22 -1 45 -7 51 -14 9
-10 9 -11 -2 -5 -9 5 -12 4 -7 -3 4 -7 14 -12 22 -12 8 0 12 5 8 11 -11 19 50
-19 76 -47 22 -24 23 -26 4 -16 -12 6 -24 9 -26 6 -8 -7 -498 -10 -498 -2 0 7
-34 3 -50 -7 -19 -12 1 40 22 56 24 18 32 46 14 46 -13 0 -1336 660 -1351 674
-26 25 17 45 211 100 109 31 208 54 219 51 11 -3 35 -8 53 -13z"/>
<path d="M20629 9429 c-77 -10 -127 -29 -153 -58 -25 -28 -15 -36 21 -18 119
61 373 43 548 -38 44 -20 122 -57 173 -81 86 -40 96 -42 124 -31 30 12 28 13
-160 100 -104 48 -212 94 -239 102 -43 13 -212 37 -238 34 -5 -1 -40 -5 -76
-10z"/>
<path d="M21390 9409 c-66 -18 -67 -19 -42 -33 19 -10 35 -9 83 2 33 8 56 19
52 23 -15 14 -58 18 -93 8z"/>
<path d="M19795 9267 c-80 -21 -125 -51 -125 -82 0 -2 19 5 43 15 103 46 299
50 464 10 48 -11 156 -54 269 -107 178 -82 217 -94 249 -76 16 10 -389 198
-484 226 -85 24 -341 33 -416 14z"/>
<path d="M21686 9263 l-59 -16 27 -14 c23 -12 34 -12 87 3 58 16 60 18 38 30
-28 16 -19 16 -93 -3z"/>
<path d="M19400 9156 c0 -61 58 -128 102 -119 l28 5 -38 30 c-20 16 -49 48
-64 70 -27 40 -28 40 -28 14z"/>
<path d="M20952 8960 c-321 -87 -585 -160 -588 -163 -3 -2 8 -9 23 -14 23 -8
83 5 313 68 157 42 413 111 569 153 l284 76 68 -31 68 -32 91 24 c91 24 91 24
60 37 -26 10 -40 10 -82 -3 -51 -15 -53 -15 -116 15 -35 16 -74 30 -86 29 -11
-1 -283 -72 -604 -159z"/>
<path d="M19579 8922 l-96 -26 -56 23 c-42 17 -66 21 -93 16 -20 -3 -34 -8
-33 -9 2 -2 40 -20 85 -39 l80 -37 111 30 c103 28 113 29 141 14 23 -11 40
-12 64 -6 l33 9 -52 26 c-62 32 -62 32 -184 -1z"/>
<path d="M19892 8780 l-104 -29 -53 26 c-46 23 -58 25 -87 16 l-33 -10 79 -38
79 -37 101 26 c56 14 108 26 116 26 8 0 73 -27 144 -60 71 -33 134 -60 140
-60 6 0 49 10 94 22 82 21 83 22 57 35 -22 12 -33 12 -80 -2 l-54 -15 -142 65
c-77 36 -144 65 -148 64 -3 0 -53 -13 -109 -29z"/>
<path d="M9130 3176 c0 -2 7 -7 16 -10 8 -3 12 -2 9 4 -6 10 -25 14 -25 6z"/>
<path d="M9000 3141 c0 -6 4 -13 10 -16 6 -3 7 1 4 9 -7 18 -14 21 -14 7z"/>
<path d="M9090 3140 c0 -5 5 -10 11 -10 5 0 7 5 4 10 -3 6 -8 10 -11 10 -2 0
-4 -4 -4 -10z"/>
<path d="M15500 3151 c-7 -14 -7 -22 0 -26 6 -4 10 -3 9 2 -3 20 2 34 11 28 6
-3 10 -1 10 4 0 18 -19 12 -30 -8z"/>
<path d="M15656 3152 c-4 -7 -2 -12 6 -12 9 0 9 -3 -2 -10 -9 -6 -10 -10 -3
-10 6 0 15 5 18 10 4 6 11 8 16 5 5 -4 9 -1 9 5 0 7 -6 10 -14 7 -8 -3 -16 -1
-19 6 -2 8 -5 8 -11 -1z"/>
<path d="M15410 3123 c0 -6 8 -17 18 -24 16 -13 16 -13 2 6 -8 11 -16 22 -17
24 -2 2 -3 0 -3 -6z"/>
<path d="M15880 3116 c0 -2 8 -10 18 -17 15 -13 16 -12 3 4 -13 16 -21 21 -21
13z"/>
<path d="M8215 9203 c-40 -10 -1781 -473 -3154 -839 -1346 -359 -1476 -396
-1510 -438 -23 -28 -22 -63 3 -92 18 -22 525 -281 1928 -986 1047 -526 1930
-965 1963 -975 49 -15 93 -18 245 -17 l185 1 1155 310 c635 171 1398 377 1695
456 297 80 552 150 566 156 15 5 29 9 31 8 2 -1 -6 8 -17 19 -11 12 -24 19
-28 17 -5 -3 -23 10 -42 29 -48 46 -66 61 -93 75 -21 11 -23 11 -18 -2 7 -21
3 -19 -28 10 -15 14 -22 25 -16 25 7 0 -1 13 -16 30 -22 23 -34 28 -54 23 -24
-5 -24 -5 -6 10 19 14 19 15 -1 21 -12 4 -24 13 -27 21 -6 17 -36 20 -36 4 0
-6 -6 -9 -12 -6 -7 2 -12 14 -10 25 2 12 -2 22 -7 22 -6 0 -34 22 -63 50 -41
40 -56 49 -77 45 -14 -3 -20 -2 -13 1 20 10 13 25 -10 22 -19 -2 -24 2 -26 25
-3 23 -7 26 -30 22 -15 -3 -21 -2 -14 1 20 9 -33 58 -57 51 -15 -3 -18 1 -17
19 0 13 4 24 9 24 4 0 7 5 7 10 0 13 -46 13 -71 0 -25 -14 -24 -6 4 20 16 16
17 19 5 15 -11 -4 -18 -2 -18 4 0 6 12 11 28 10 37 -1 268 19 367 31 693 89
1121 332 1092 619 -36 350 -732 696 -1672 830 -534 76 -1106 75 -1550 -3 -52
-9 -86 -11 -98 -5 -11 6 -16 6 -15 0 2 -5 -1 -10 -7 -11 -5 -1 -18 -6 -27 -11
-10 -6 -19 -5 -23 1 -4 6 -3 9 2 8 4 -2 8 2 8 7 0 6 -10 10 -23 10 -16 -1 -21
4 -17 15 6 20 -38 47 -69 42 -16 -3 -18 -1 -8 11 17 20 -18 53 -37 34 -11 -10
-13 -8 -8 11 3 13 1 22 -7 22 -6 0 -28 13 -47 29 -26 22 -43 28 -60 24 -24 -5
-24 -5 -4 10 11 9 15 17 7 17 -6 0 -21 11 -33 24 -14 16 -27 22 -41 18 -16 -4
-19 -1 -16 19 2 20 -2 24 -22 26 -14 0 -34 -1 -45 -4z m2360 -1851 c-3 -3 -11
0 -18 7 -9 10 -8 11 6 5 10 -3 15 -9 12 -12z m230 -172 c3 -5 1 -10 -4 -10 -6
0 -11 5 -11 10 0 6 2 10 4 10 3 0 8 -4 11 -10z"/>
<path d="M15580 7085 c-47 -13 -652 -175 -1345 -359 -693 -185 -1268 -339
-1279 -342 -13 -4 96 -64 355 -196 l374 -189 105 35 c322 107 686 171 1075
191 192 9 201 11 200 42 0 14 7 29 15 34 8 5 330 95 715 199 385 105 704 192
708 193 12 3 -808 417 -824 416 -8 0 -52 -11 -99 -24z"/>
<path d="M12272 6202 c-468 -125 -541 -148 -526 -159 15 -11 1380 -703 1386
-703 2 0 3 42 4 94 1 82 5 101 31 157 60 127 171 231 347 325 l88 46 -44 25
c-88 51 -718 363 -730 362 -7 0 -258 -67 -556 -147z"/>
<path d="M3541 5604 c-348 -95 -635 -175 -637 -176 -4 -5 932 -478 947 -478 8
0 305 79 662 176 l647 177 -471 239 c-259 131 -481 238 -493 237 -11 0 -306
-79 -655 -175z"/>
<path d="M9940 5580 c-118 -32 -304 -82 -412 -112 -109 -29 -194 -56 -190 -60
4 -3 132 -70 285 -148 219 -112 277 -146 277 -161 0 -11 -10 -24 -22 -29 -13
-5 -338 -95 -723 -199 -1539 -417 -3311 -901 -3327 -908 -12 -6 124 -79 491
-265 280 -142 516 -258 524 -258 9 0 535 142 1169 316 1192 326 2222 608 3218
879 316 87 578 160 582 164 6 5 -1641 843 -1653 840 -2 0 -101 -27 -219 -59z"/>
<path d="M15775 5590 c-22 -4 -53 -14 -70 -20 -30 -11 -75 -48 -75 -60 0 -4
33 4 73 18 66 22 83 24 207 19 161 -6 187 -13 407 -114 148 -67 168 -74 200
-66 36 8 33 10 -163 100 -109 51 -226 99 -259 108 -70 19 -262 28 -320 15z"/>
<path d="M16540 5566 l-45 -13 27 -13 c22 -10 36 -10 75 0 63 17 70 22 47 31
-26 10 -51 9 -104 -5z"/>
<path d="M15040 5444 c-71 -11 -152 -39 -175 -60 -37 -34 -31 -45 13 -24 63
31 164 43 296 37 162 -8 217 -24 446 -129 165 -76 200 -88 229 -83 18 4 30 10
25 14 -19 17 -393 185 -461 207 -108 35 -277 52 -373 38z"/>
<path d="M16863 5427 c-53 -15 -59 -21 -31 -34 17 -7 39 -5 83 7 55 15 58 18
38 28 -25 14 -34 14 -90 -1z"/>
<path d="M14575 5329 c-15 -39 50 -129 92 -129 33 0 29 12 -15 47 -21 17 -46
46 -55 64 -12 25 -17 30 -22 18z"/>
<path d="M16137 5127 c-517 -140 -595 -164 -580 -175 10 -7 29 -11 43 -9 14 2
230 59 480 127 250 67 499 134 553 148 l98 26 65 -32 65 -32 84 22 c47 13 85
26 85 30 0 16 -51 19 -99 7 -47 -12 -53 -11 -117 17 -38 16 -70 30 -73 31 -4
0 -275 -72 -604 -160z"/>
<path d="M14766 5088 l-109 -29 -56 25 c-52 23 -104 26 -115 7 -2 -3 32 -22
76 -41 l80 -34 112 28 c103 27 114 28 141 14 23 -11 38 -13 65 -5 22 6 29 12
20 15 -8 3 -35 15 -60 27 l-45 22 -109 -29z"/>
<path d="M14820 4957 l-35 -9 82 -38 83 -39 107 30 108 29 142 -66 141 -65 88
24 c82 22 87 25 65 36 -18 10 -36 10 -84 1 l-62 -12 -135 63 -135 62 -113 -29
-112 -28 -53 25 c-43 22 -58 24 -87 16z"/>
</g>
</svg>
